<svg version="1.1" id="Layer_1" xmlns="http://www.w3.org/2000/svg" xmlns:xlink="http://www.w3.org/1999/xlink" x="0px" y="0px"
	 width="100%" viewBox="0 0 512 512" enable-background="new 0 0 512 512" xml:space="preserve">
<path fill="transparent" opacity="1.000000" stroke="none" 
	d="
M271.000000,513.000000 
	C180.688583,513.000000 90.877167,513.000000 1.032874,513.000000 
	C1.032874,342.396881 1.032874,171.793777 1.032874,1.095328 
	C171.561432,1.095328 342.122955,1.095328 512.842224,1.095328 
	C512.842224,171.666550 512.842224,342.333252 512.842224,513.000000 
	C432.460419,513.000000 351.980194,513.000000 271.000000,513.000000 
M77.709480,256.926025 
	C148.069458,186.442184 218.429443,115.958344 289.291016,44.972031 
	C286.226074,42.119041 282.816772,39.406696 279.957886,36.203144 
	C268.614868,23.492556 245.891083,23.964752 233.934280,36.172798 
	C203.285690,67.465363 172.071671,98.203957 141.099030,129.179352 
	C106.122391,164.159103 71.146011,199.139175 36.211124,234.160614 
	C30.233959,240.152588 26.930649,247.376144 26.974724,256.840851 
	C27.021782,271.137512 36.333103,279.726501 45.588486,287.927856 
	C56.268208,277.530975 66.688408,267.386749 77.709480,256.926025 
M251.768753,255.812454 
	C293.029388,214.554153 334.290039,173.295868 375.347443,132.240784 
	C352.343994,109.214622 329.881104,86.729515 307.346069,64.172234 
	C306.595795,64.882797 305.733551,65.661621 304.912903,66.482094 
	C263.813721,107.572983 222.702011,148.651352 181.628555,189.767944 
	C159.627594,211.792023 137.693161,233.882568 115.143211,256.215881 
	C98.269791,273.126312 81.396362,290.036774 64.775833,306.693756 
	C87.762390,329.698273 110.225281,352.178680 132.893295,374.864410 
	C150.619461,357.087494 168.497711,339.174286 186.357727,321.242859 
	C207.973053,299.541107 229.572876,277.823914 251.768753,255.812454 
M288.092163,256.206360 
	C242.376053,301.874329 196.659958,347.542328 150.834793,393.319244 
	C151.935471,394.491974 152.803940,395.469788 153.726959,396.393066 
	C180.341431,423.014648 207.142349,449.453217 233.502304,476.324402 
	C246.236938,489.306030 267.842834,489.405121 280.325256,476.454926 
	C293.962830,462.306335 308.066620,448.607117 321.964203,434.709045 
	C373.550385,383.120850 425.133453,331.529541 476.723083,279.944794 
	C483.343842,273.324646 487.238678,265.566437 486.984711,255.161026 
	C486.682800,247.016541 483.645081,240.030380 477.910522,234.276749 
	C459.106415,215.410004 440.249298,196.596191 421.438690,177.735931 
	C412.415924,168.689346 403.451935,159.584167 394.271759,150.314117 
	C392.856781,151.639145 391.885803,152.499329 390.969330,153.414124 
	C379.421692,164.940247 367.865326,176.457703 356.343658,188.009750 
	C333.776093,210.636795 311.228973,233.284256 288.092163,256.206360 
z"/>
<path fill="#1FB6FF" opacity="1.000000" stroke="none" 
	d="
M486.879211,255.995087 
	C487.238678,265.566437 483.343842,273.324646 476.723083,279.944794 
	C425.133453,331.529541 373.550385,383.120850 321.964203,434.709045 
	C308.066620,448.607117 293.962830,462.306335 280.325256,476.454926 
	C267.842834,489.405121 246.236938,489.306030 233.502304,476.324402 
	C207.142349,449.453217 180.341431,423.014648 153.726959,396.393066 
	C152.803940,395.469788 151.935471,394.491974 150.834793,393.319244 
	C196.659958,347.542328 242.376053,301.874329 288.874237,256.093719 
	C355.397278,255.985748 421.138245,255.990417 486.879211,255.995087 
z"/>
<path fill="#009EEB" opacity="1.000000" stroke="none" 
	d="
M115.728714,255.943115 
	C137.693161,233.882568 159.627594,211.792023 181.628555,189.767944 
	C222.702011,148.651352 263.813721,107.572983 304.912903,66.482094 
	C305.733551,65.661621 306.595795,64.882797 307.346069,64.172234 
	C329.881104,86.729515 352.343994,109.214622 375.347443,132.240784 
	C334.290039,173.295868 293.029388,214.554153 250.994553,255.933777 
	C205.389801,256.017792 160.559265,255.980453 115.728714,255.943115 
z"/>
<path fill="#009EEB" opacity="1.000000" stroke="none" 
	d="
M27.122204,255.994888 
	C26.930649,247.376144 30.233959,240.152588 36.211124,234.160614 
	C71.146011,199.139175 106.122391,164.159103 141.099030,129.179352 
	C172.071671,98.203957 203.285690,67.465363 233.934280,36.172798 
	C245.891083,23.964752 268.614868,23.492556 279.957886,36.203144 
	C282.816772,39.406696 286.226074,42.119041 289.291016,44.972031 
	C218.429443,115.958344 148.069458,186.442184 77.136124,256.748413 
	C74.782692,256.386078 73.003143,256.046997 71.222458,256.040924 
	C56.522495,255.990662 41.822315,256.002136 27.122204,255.994888 
z"/>
<path fill="#1FB6FF" opacity="1.000000" stroke="none" 
	d="
M115.435966,256.079498 
	C160.559265,255.980453 205.389801,256.017792 250.699890,256.084259 
	C229.572876,277.823914 207.973053,299.541107 186.357727,321.242859 
	C168.497711,339.174286 150.619461,357.087494 132.893295,374.864410 
	C110.225281,352.178680 87.762390,329.698273 64.775833,306.693756 
	C81.396362,290.036774 98.269791,273.126312 115.435966,256.079498 
z"/>
<path fill="#009EEB" opacity="1.000000" stroke="none" 
	d="
M486.931946,255.578064 
	C421.138245,255.990417 355.397278,255.985748 289.164856,255.952179 
	C311.228973,233.284256 333.776093,210.636795 356.343658,188.009750 
	C367.865326,176.457703 379.421692,164.940247 390.969330,153.414124 
	C391.885803,152.499329 392.856781,151.639145 394.271759,150.314117 
	C403.451935,159.584167 412.415924,168.689346 421.438690,177.735931 
	C440.249298,196.596191 459.106415,215.410004 477.910522,234.276749 
	C483.645081,240.030380 486.682800,247.016541 486.931946,255.578064 
z"/>
<path fill="#1EB6FF" opacity="1.000000" stroke="none" 
	d="
M27.048464,256.417877 
	C41.822315,256.002136 56.522495,255.990662 71.222458,256.040924 
	C73.003143,256.046997 74.782692,256.386078 76.835693,256.906677 
	C66.688408,267.386749 56.268208,277.530975 45.588486,287.927856 
	C36.333103,279.726501 27.021782,271.137512 27.048464,256.417877 
z"/>
</svg>